<?xml version="1.0" encoding="UTF-8"?>
<svg id="Layer_1" data-name="Layer 1" xmlns="http://www.w3.org/2000/svg" viewBox="0 0 511.88 164.53">
  <defs>
    <style>
      .cls-1 {
        fill: #000;
        stroke-width: 0px;
      }
    </style>
  </defs>
  <path class="cls-1" d="M0,3.39h97.41v30.74h-63.51v32.77h55.6v28.02h-55.6v35.93h63.51v30.74H0V3.39Z"/>
  <path class="cls-1" d="M109.16,18.76c0-10.17,8.14-18.76,18.53-18.76s18.98,8.59,18.98,18.76-8.59,18.76-18.98,18.76-18.53-8.36-18.53-18.76ZM111.64,49.49h32.54v112.09h-32.54V49.49Z"/>
  <path class="cls-1" d="M155.26,105.54c0-34.13,24.86-58.99,54.92-58.99,15.14,0,28.25,6.1,36.16,17.63V3.39h32.54v158.2h-32.54v-14.69c-7.23,11.53-21.02,17.63-36.16,17.63-30.06,0-54.92-24.86-54.92-58.99ZM246.79,105.32c0-16.72-12.88-30.06-29.38-30.06s-29.15,13.33-29.15,30.28,12.88,30.28,29.15,30.28,29.38-13.56,29.38-30.51Z"/>
  <path class="cls-1" d="M293.8,49.49h32.54v19.66c5.88-13.11,16.5-19.66,33-19.66h24.86v30.28h-27.35c-19.66,0-30.51,11.3-30.51,31.64v50.17h-32.54V49.49Z"/>
  <path class="cls-1" d="M388.26,105.54c0-34.13,24.86-58.99,54.92-58.99,14.92,0,28.25,6.1,36.16,17.63v-14.69h32.54v112.09h-32.54v-14.69c-7.23,11.53-21.24,17.63-36.16,17.63-30.06,0-54.92-24.86-54.92-58.99ZM479.79,105.32c0-16.72-12.88-30.06-29.38-30.06s-29.15,13.33-29.15,30.28,12.88,30.28,29.15,30.28,29.38-13.56,29.38-30.51Z"/>
</svg>